:SAMPLES-PER-SECOND 30
:FULLY-SPECIFIED
:DEGREES
30
root  -1.46134 40.1916 2.17396 -175.768 -88.2029 173.221
RightUpLeg  -1.17865 -8.19514 -5.2013
RightLeg  3.29011 9.04203 0.224151
RightFoot  1.03511 -0.268587 2.53971
RightToes  2.96859e-009 0 -3.6325e-017
Spine  4.88143 0.6022 1.43264
Spine1  1.19056 1.12554 -2.56214
HEad  -1.1505 1.91156 -2.05394
LeftShoulder1  0.126158 1.91195 0.616642
LeftArm  -19.749 3.53238 -11.4815
LeftForeArm  3.80744 0.471127 1.51869
LeftHand  -0.0289118 3.48056 0.816469
RightShoulder  0.0605485 -2.32572 -3.05584
RightArm  -7.48284 -1.95199 6.93101
RightForeArm  -1.26891 1.2361 -2.18576
RightHand  -0.0442102 2.99574 -0.838943
LeftUpLeg  -2.23136 6.37193 2.39076
LeftLeg  5.47018 -1.13745 0.0696799
LeftFoot  -0.693954 -0.17483 1.95976
LeftToes  3.24686e-010 -7.02549e-012 1.39809e-011
31
root  -1.43814 40.2047 2.26295 -176.203 -87.4746 173.518
RightUpLeg  -1.09264 -8.4 -5.4693
RightLeg  2.99894 9.92604 0.350732
RightFoot  1.57369 -0.313243 2.86173
RightToes  2.96859e-009 0 -3.6325e-017
Spine  4.62175 0.807167 1.78036
Spine1  1.45593 1.43763 -3.09847
HEad  -0.762689 2.6633 -2.36714
LeftShoulder1  0.103335 2.16885 0.789728
LeftArm  -20.0598 3.29609 -12.2329
LeftForeArm  4.47668 0.625552 1.71536
LeftHand  -0.0223261 2.48288 0.336815
RightShoulder  0.0672737 -2.39087 -2.8852
RightArm  -8.30115 -1.95742 7.61625
RightForeArm  -1.27475 2.01285 -2.33661
RightHand  -0.0948507 3.05472 -1.53303
LeftUpLeg  -2.0637 6.35071 2.21427
LeftLeg  5.53275 -0.386392 0.147148
LeftFoot  -0.563499 -0.173853 1.87759
LeftToes  3.24686e-010 -7.02549e-012 1.39809e-011
32
root  -1.39196 40.2173 2.38076 -175.107 -87.0363 172.204
RightUpLeg  -0.901475 -8.70606 -5.8428
RightLeg  2.72661 10.6568 0.454256
RightFoot  2.03919 -0.356608 3.15638
RightToes  2.96859e-009 0 -3.6325e-017
Spine  4.68684 0.8875 1.6734
Spine1  1.20099 1.47786 -2.9206
HEad  0.240695 3.18127 -2.52868
LeftShoulder1  0.0970266 2.34372 0.119236
LeftArm  -20.1173 3.21382 -12.5727
LeftForeArm  4.26894 0.0826447 1.6342
LeftHand  -0.0290201 2.70516 0.65358
RightShoulder  0.0796728 -2.24297 -2.49928
RightArm  -9.45238 -2.22597 8.45858
RightForeArm  -1.84728 3.36455 -2.5175
RightHand  -0.133898 2.99075 -2.0889
LeftUpLeg  -1.74181 6.21966 1.93297
LeftLeg  5.27138 0.199451 0.211299
LeftFoot  -0.342819 -0.193714 2.03329
LeftToes  3.24686e-010 -7.02549e-012 1.39809e-011
33
root  -1.29392 40.2182 2.5412 -175.52 -86.9003 172.457
RightUpLeg  -0.804887 -8.92006 -6.14624
RightLeg  2.4489 11.0717 0.486396
RightFoot  2.49849 -0.417099 3.57611
RightToes  2.96859e-009 0 -3.6325e-017
Spine  4.43935 0.831817 2.32883
Spine1  1.42377 1.59433 -3.76535
HEad  1.43974 4.50077 -2.8206
LeftShoulder1  0.103134 2.31452 -0.231075
LeftArm  -20.7162 2.83355 -13.8135
LeftForeArm  3.74814 -0.589954 1.79275
LeftHand  -0.0453428 3.05688 1.47409
RightShoulder  0.0826177 -2.38189 -1.28597
RightArm  -11.6267 -3.00985 9.57566
RightForeArm  -1.94305 6.01367 -2.90125
RightHand  -0.200795 2.82461 -3.05927
LeftUpLeg  -1.72597 6.18491 1.72178
LeftLeg  5.26104 0.428582 0.123352
LeftFoot  -0.156978 -0.229175 2.35139
LeftToes  3.24686e-010 -7.02549e-012 1.39809e-011
34
root  -1.19061 40.1983 2.72173 -176.232 -86.8253 172.826
RightUpLeg  -0.542086 -8.98013 -6.41489
RightLeg  2.19974 11.2431 0.367638
RightFoot  2.75769 -0.468982 3.94288
RightToes  2.96859e-009 0 -3.6325e-017
Spine  4.2619 0.91231 2.18369
Spine1  1.62266 1.5878 -3.38618
HEad  2.88563 6.41853 -3.14361
LeftShoulder1  0.102392 2.48327 -1.90178
LeftArm  -20.9605 1.53479 -14.7186
LeftForeArm  4.76385 -0.975645 1.67301
LeftHand  -0.0461151 3.12051 1.5703
RightShoulder  0.0746067 -2.62249 0.0104294
RightArm  -14.1154 -4.16843 10.7614
RightForeArm  -1.32299 9.76615 -2.9596
RightHand  -0.224725 3.50708 -3.18343
LeftUpLeg  -1.74901 6.25975 1.53354
LeftLeg  5.7065 0.497682 -0.0199
LeftFoot  -0.128338 -0.280083 2.86029
LeftToes  3.24686e-010 -7.02549e-012 1.39809e-011
35
root  -1.03591 40.1806 2.94368 -174.73 -87.0011 170.936
RightUpLeg  -0.420737 -9.12578 -6.83814
RightLeg  2.26967 11.335 0.244294
RightFoot  3.03048 -0.523456 4.31323
RightToes  2.96859e-009 0 -3.6325e-017
Spine  4.38489 0.787852 2.12995
Spine1  1.49632 1.447 -3.35309
HEad  5.18013 7.55104 -3.22401
LeftShoulder1  0.0869112 2.75953 -3.49564
LeftArm  -21.3621 0.130785 -16.2421
LeftForeArm  6.06559 -1.66092 1.58403
LeftHand  -0.0567016 3.22389 2.13697
RightShoulder  0.0598039 -2.92084 2.34968
RightArm  -17.4057 -5.23834 11.497
RightForeArm  1.33687 14.0177 -1.8484
RightHand  -0.270325 3.53191 -3.76813
LeftUpLeg  -1.701 5.99964 1.04797
LeftLeg  5.80361 0.662299 0.0524429
LeftFoot  0.176636 -0.324522 3.2061
LeftToes  3.24686e-010 -7.02549e-012 1.39809e-011
36
root  -0.816421 40.1486 3.20248 -173.652 -87.2957 169.616
RightUpLeg  -0.541119 -9.33179 -7.28422
RightLeg  2.36697 11.3255 0.232384
RightFoot  3.34725 -0.596234 4.8004
RightToes  2.96859e-009 0 -3.6325e-017
Spine  4.15264 0.688011 1.94215
Spine1  1.82472 1.27693 -3.04063
HEad  7.66637 9.57953 -3.67876
LeftShoulder1  0.126976 2.48459 -4.68148
LeftArm  -21.3577 -0.458135 -18.8967
LeftForeArm  7.37704 -2.63127 1.36114
LeftHand  -0.0783281 2.4115 2.6202
RightShoulder  0.0221059 -3.32346 4.84396
RightArm  -20.9738 -5.83663 12.3393
RightForeArm  6.01881 17.364 0.202853
RightHand  -0.310792 4.21463 -4.03465
LeftUpLeg  -2.02335 5.98588 0.697607
LeftLeg  6.1518 0.506258 -0.2054
LeftFoot  0.426209 -0.385812 3.71824
LeftToes  3.24686e-010 -7.02549e-012 1.39809e-011
